<?xml version="1.0" encoding="UTF-8"?>
<svg id="Livello_2" data-name="Livello 2" xmlns="http://www.w3.org/2000/svg" viewBox="0 0 291.4 216.93">
  <defs>
    <style>
      .cls-1 {
        fill: #fff;
      }
    </style>
  </defs>
  <g id="Livello_2-2" data-name="Livello 2">
    <g>
      <path class="cls-1" d="M45.73,80.26c3.22,0,6.19-1.09,8.57-2.91l53.75,36.31c3.68-8.78,11.49-15.41,21-17.42l-16.39-34.14c2.12-2.2,3.55-5.08,3.9-8.34.83-7.76-4.81-14.76-12.57-15.59-.5-.05-1.01-.08-1.51-.08h0c-7.25,0-13.3,5.44-14.07,12.66-.4,3.76.68,7.45,3.06,10.4,2.37,2.94,5.75,4.79,9.52,5.19.5.05,1.01.08,1.51.08.39,0,.78-.02,1.16-.05l12.03,24.46c-4.27,2.45-8.03,5.67-11.11,9.48l-44.96-31.4c.18-.9.28-1.84.28-2.8,0-7.81-6.35-14.16-14.16-14.16s-14.16,6.35-14.16,14.16,6.35,14.16,14.16,14.16ZM107.88,52.82c-.3,2.79-2.66,4.86-5.4,4.86-.19,0-.39-.01-.58-.03-2.99-.32-5.15-3-4.83-5.98.3-2.79,2.66-4.86,5.4-4.86.19,0,.39.01.58.03,2.99.32,5.15,3,4.83,5.98ZM45.73,60.66c3,0,5.44,2.43,5.44,5.44s-2.43,5.44-5.44,5.44-5.44-2.43-5.44-5.44,2.43-5.44,5.44-5.44Z"/>
      <path class="cls-1" d="M162.72,115.04l35.72-29.72c2.08,1.2,4.49,1.9,7.07,1.9.21,0,.43,0,.65-.01,7.8-.35,13.86-6.99,13.5-14.79-.34-7.58-6.56-13.52-14.14-13.52-.21,0-.43,0-.65.01-7.8.35-13.86,6.99-13.5,14.79.06,1.37.32,2.68.74,3.92l-26.53,22.55c-3.66-4.5-8.29-8.17-13.57-10.7l16.85-61.25c7.34-.82,12.91-7.21,12.57-14.7-.34-7.58-6.56-13.52-14.14-13.52-.21,0-.43,0-.65.01-7.8.35-13.86,6.99-13.5,14.79.21,4.57,2.56,8.54,6.05,10.97l-19.4,70.2c10.64,1.71,19.36,9.16,22.93,19.06ZM205.27,67.63c.08,0,.17,0,.25,0,2.89,0,5.3,2.27,5.43,5.19.14,3-2.19,5.54-5.19,5.68-.08,0-.17,0-.25,0-2.89,0-5.3-2.27-5.43-5.19-.14-3,2.19-5.54,5.19-5.68ZM167.04,8.73c.08,0,.17,0,.25,0,2.89,0,5.3,2.27,5.43,5.19.14,3-2.19,5.54-5.18,5.68-.08,0-.17,0-.25,0-2.89,0-5.3-2.27-5.43-5.19-.14-3,2.19-5.54,5.19-5.68Z"/>
      <path class="cls-1" d="M269.22,170.44l-9.49,5.81c-.72.47-1.45.57-1.93.57-.96,0-1.86-.36-2.52-1.02l-44.78-44.51c-6.53-6.5-15.23-10.08-24.47-10.08-8.52,0-16.71,3.11-23.06,8.76l-28.74,25.57-.06.05-17.04-18.34c-6.56-6.99-15.72-10.99-25.15-10.99h-.43c-9.57.06-18.82,4.15-25.32,11.24l-31.48,34.32c-.66.72-1.53,1.12-2.52,1.15h-.05s-.05,0-.05,0h-.13c-1.08,0-1.87-.55-2.34-1.01l-7.83-7.73-5.24,5.34-11.34,11.57-5.24,5.34,7.83,7.73c6.53,6.4,15.19,9.92,24.39,9.92.26,0,.52,0,.78,0,9.52-.25,18.28-4.24,24.69-11.23l31.48-34.32c.69-.76,1.57-1.14,2.59-1.15,1.02,0,1.91.38,2.58,1.09l44.06,47.41c6.56,6.99,15.79,10.99,25.34,10.99,8.15,0,16.07-2.89,22.32-8.14l28.66-24.09,2.87-2.41,15.71,15.62c6.53,6.49,15.23,10.06,24.5,10.06,6.82,0,13.42-1.97,19.07-5.71l14.51-9.12-22.18-22.69ZM194.68,160.85l-28.66,24.09c-.82.69-1.69.83-2.28.83s-1.66-.14-2.56-1.09l-5.8-6.24,28.29-25.18c.65-.58,1.48-.89,2.35-.89.55,0,1.61.13,2.51,1.03l6.88,6.84-.73.61Z"/>
    </g>
  </g>
</svg>